REM DIRINDEX 1\2,1\3,1\4
REM DIRNAME cjc105,folder01,folder02,folder03
TITLE ""
FILE "DISC2Track15.mp3" MP3
  TRACK 01 AUDIO
    TITLE "0:"
    INDEX 01 00:00:00
  TRACK 02 AUDIO
    TITLE "4:cjc105_2573"
    INDEX 01 00:00:15
  TRACK 03 AUDIO
    TITLE "0:"
    INDEX 01 00:04:58
  TRACK 04 AUDIO
    TITLE "4:cjc105_2574"
    INDEX 01 00:05:28
  TRACK 05 AUDIO
    TITLE "0:"
    INDEX 01 00:07:56
  TRACK 06 AUDIO
    TITLE "2:cjc105_2575"
    INDEX 01 00:08:28
  TRACK 07 AUDIO
    TITLE "3:cjc105_2576"
    INDEX 01 00:09:69
  TRACK 08 AUDIO
    TITLE "0:"
    INDEX 01 00:11:29
  TRACK 09 AUDIO
    TITLE "2:cjc105_2577"
    INDEX 01 00:11:42
  TRACK 10 AUDIO
    TITLE "3:cjc105_2578"
    INDEX 01 00:12:52
  TRACK 11 AUDIO
    TITLE "0:"
    INDEX 01 00:14:00
  TRACK 12 AUDIO
    TITLE "2:cjc105_2579"
    INDEX 01 00:14:09
  TRACK 13 AUDIO
    TITLE "3:cjc105_2580"
    INDEX 01 00:15:21
  TRACK 14 AUDIO
    TITLE "0:"
    INDEX 01 00:16:16
  TRACK 15 AUDIO
    TITLE "2:cjc105_2581"
    INDEX 01 00:16:28
  TRACK 16 AUDIO
    TITLE "3:cjc105_2582"
    INDEX 01 00:17:63
  TRACK 17 AUDIO
    TITLE "0:"
    INDEX 01 00:19:22
  TRACK 18 AUDIO
    TITLE "2:cjc105_2583"
    INDEX 01 00:19:36
  TRACK 19 AUDIO
    TITLE "3:cjc105_2584"
    INDEX 01 00:20:47
  TRACK 20 AUDIO
    TITLE "0:"
    INDEX 01 00:22:17
  TRACK 21 AUDIO
    TITLE "2:cjc105_2585"
    INDEX 01 00:22:30
  TRACK 22 AUDIO
    TITLE "3:cjc105_2586"
    INDEX 01 00:23:61
  TRACK 23 AUDIO
    TITLE "0:"
    INDEX 01 00:25:11
  TRACK 24 AUDIO
    TITLE "2:cjc105_2587"
    INDEX 01 00:25:17
  TRACK 25 AUDIO
    TITLE "3:cjc105_2588"
    INDEX 01 00:28:13
  TRACK 26 AUDIO
    TITLE "0:"
    INDEX 01 00:30:06
  TRACK 27 AUDIO
    TITLE "2:cjc105_2589"
    INDEX 01 00:30:22
  TRACK 28 AUDIO
    TITLE "3:cjc105_2590"
    INDEX 01 00:31:53
  TRACK 29 AUDIO
    TITLE "0:"
    INDEX 01 00:32:56
  TRACK 30 AUDIO
    TITLE "2:cjc105_2591"
    INDEX 01 00:32:68
  TRACK 31 AUDIO
    TITLE "3:cjc105_2592"
    INDEX 01 00:34:36
  TRACK 32 AUDIO
    TITLE "0:"
    INDEX 01 00:35:55
  TRACK 33 AUDIO
    TITLE "2:cjc105_2593"
    INDEX 01 00:35:68
  TRACK 34 AUDIO
    TITLE "3:cjc105_2594"
    INDEX 01 00:37:16
  TRACK 35 AUDIO
    TITLE "0:"
    INDEX 01 00:38:53
  TRACK 36 AUDIO
    TITLE "2:cjc105_2595"
    INDEX 01 00:38:65
  TRACK 37 AUDIO
    TITLE "3:cjc105_2596"
    INDEX 01 00:40:07
  TRACK 38 AUDIO
    TITLE "0:"
    INDEX 01 00:41:32
  TRACK 39 AUDIO
    TITLE "2:cjc105_2597"
    INDEX 01 00:41:44
  TRACK 40 AUDIO
    TITLE "3:cjc105_2598"
    INDEX 01 00:42:51
  TRACK 41 AUDIO
    TITLE "0:"
    INDEX 01 00:44:12
  TRACK 42 AUDIO
    TITLE "2:cjc105_2599"
    INDEX 01 00:44:26
  TRACK 43 AUDIO
    TITLE "3:cjc105_2600"
    INDEX 01 00:45:55
  TRACK 44 AUDIO
    TITLE "0:"
    INDEX 01 00:46:66
  TRACK 45 AUDIO
    TITLE "2:cjc105_2601"
    INDEX 01 00:47:03
  TRACK 46 AUDIO
    TITLE "3:cjc105_2602"
    INDEX 01 00:48:02
  TRACK 47 AUDIO
    TITLE "0:"
    INDEX 01 00:49:10
  TRACK 48 AUDIO
    TITLE "2:cjc105_2603"
    INDEX 01 00:49:23
  TRACK 49 AUDIO
    TITLE "3:cjc105_2604"
    INDEX 01 00:50:44
  TRACK 50 AUDIO
    TITLE "0:"
    INDEX 01 00:52:14
  TRACK 51 AUDIO
    TITLE "2:cjc105_2605"
    INDEX 01 00:52:26
  TRACK 52 AUDIO
    TITLE "3:cjc105_2606"
    INDEX 01 00:53:29
  TRACK 53 AUDIO
    TITLE "0:"
    INDEX 01 00:54:44
  TRACK 54 AUDIO
    TITLE "2:cjc105_2607"
    INDEX 01 00:54:56
  TRACK 55 AUDIO
    TITLE "3:cjc105_2608"
    INDEX 01 00:55:65
  TRACK 56 AUDIO
    TITLE "0:"
    INDEX 01 00:56:72
  TRACK 57 AUDIO
    TITLE "2:cjc105_2609"
    INDEX 01 00:57:07
  TRACK 58 AUDIO
    TITLE "3:cjc105_2610"
    INDEX 01 00:59:04
  TRACK 59 AUDIO
    TITLE "0:"
    INDEX 01 01:00:74
  TRACK 60 AUDIO
    TITLE "2:cjc105_2611"
    INDEX 01 01:01:15
  TRACK 61 AUDIO
    TITLE "3:cjc105_2612"
    INDEX 01 01:02:28
  TRACK 62 AUDIO
    TITLE "0:"
    INDEX 01 01:03:47
  TRACK 63 AUDIO
    TITLE "2:cjc105_2613"
    INDEX 01 01:03:67
  TRACK 64 AUDIO
    TITLE "3:cjc105_2614"
    INDEX 01 01:05:30
  TRACK 65 AUDIO
    TITLE "0:"
    INDEX 01 01:06:30
  TRACK 66 AUDIO
    TITLE "2:cjc105_2615"
    INDEX 01 01:06:40
  TRACK 67 AUDIO
    TITLE "3:cjc105_2616"
    INDEX 01 01:07:72
  TRACK 68 AUDIO
    TITLE "0:"
    INDEX 01 01:08:72
  TRACK 69 AUDIO
    TITLE "2:cjc105_2617"
    INDEX 01 01:09:09
  TRACK 70 AUDIO
    TITLE "3:cjc105_2618"
    INDEX 01 01:10:65
  TRACK 71 AUDIO
    TITLE "0:"
    INDEX 01 01:11:74
  TRACK 72 AUDIO
    TITLE "2:cjc105_2619"
    INDEX 01 01:12:11
  TRACK 73 AUDIO
    TITLE "3:cjc105_2620"
    INDEX 01 01:13:65
  TRACK 74 AUDIO
    TITLE "0:"
    INDEX 01 01:15:23
  TRACK 75 AUDIO
    TITLE "2:cjc105_2621"
    INDEX 01 01:15:33
  TRACK 76 AUDIO
    TITLE "3:cjc105_2622"
    INDEX 01 01:16:34
  TRACK 77 AUDIO
    TITLE "0:"
    INDEX 01 01:17:61
  TRACK 78 AUDIO
    TITLE "2:cjc105_2623"
    INDEX 01 01:17:73
  TRACK 79 AUDIO
    TITLE "3:cjc105_2624"
    INDEX 01 01:20:24
  TRACK 80 AUDIO
    TITLE "0:"
    INDEX 01 01:21:63
  TRACK 81 AUDIO
    TITLE "2:cjc105_2625"
    INDEX 01 01:21:72
  TRACK 82 AUDIO
    TITLE "3:cjc105_2626"
    INDEX 01 01:23:09
  TRACK 83 AUDIO
    TITLE "0:"
    INDEX 01 01:24:22
  TRACK 84 AUDIO
    TITLE "2:cjc105_2627"
    INDEX 01 01:24:37
  TRACK 85 AUDIO
    TITLE "3:cjc105_2628"
    INDEX 01 01:25:58
  TRACK 86 AUDIO
    TITLE "0:"
    INDEX 01 01:26:66
  TRACK 87 AUDIO
    TITLE "2:cjc105_2629"
    INDEX 01 01:27:03
  TRACK 88 AUDIO
    TITLE "3:cjc105_2630"
    INDEX 01 01:28:61
  TRACK 89 AUDIO
    TITLE "0:"
    INDEX 01 01:29:64
  TRACK 90 AUDIO
    TITLE "2:cjc105_2631"
    INDEX 01 01:30:07
  TRACK 91 AUDIO
    TITLE "3:cjc105_2632"
    INDEX 01 01:31:18
  TRACK 92 AUDIO
    TITLE "0:"
    INDEX 01 01:32:29
  TRACK 93 AUDIO
    TITLE "2:cjc105_2633"
    INDEX 01 01:32:41
  TRACK 94 AUDIO
    TITLE "3:cjc105_2634"
    INDEX 01 01:33:68
  TRACK 95 AUDIO
    TITLE "0:"
    INDEX 01 01:35:14
  TRACK 96 AUDIO
    TITLE "2:cjc105_2635"
    INDEX 01 01:35:22
  TRACK 97 AUDIO
    TITLE "3:cjc105_2636"
    INDEX 01 01:36:41
  TRACK 98 AUDIO
    TITLE "0:"
    INDEX 01 01:37:60
  TRACK 99 AUDIO
    TITLE "2:cjc105_2637"
    INDEX 01 01:37:71
  TRACK 100 AUDIO
    TITLE "3:cjc105_2638"
    INDEX 01 01:39:35
  TRACK 101 AUDIO
    TITLE "0:"
    INDEX 01 01:40:50
  TRACK 102 AUDIO
    TITLE "2:cjc105_2639"
    INDEX 01 01:40:60
  TRACK 103 AUDIO
    TITLE "3:cjc105_2640"
    INDEX 01 01:42:02
  TRACK 104 AUDIO
    TITLE "0:"
    INDEX 01 01:43:31
  TRACK 105 AUDIO
    TITLE "2:cjc105_2641"
    INDEX 01 01:43:45
  TRACK 106 AUDIO
    TITLE "3:cjc105_2642"
    INDEX 01 01:45:55
  TRACK 107 AUDIO
    TITLE "0:"
    INDEX 01 01:46:70
  TRACK 108 AUDIO
    TITLE "2:cjc105_2643"
    INDEX 01 01:47:07
  TRACK 109 AUDIO
    TITLE "3:cjc105_2644"
    INDEX 01 01:48:28
  TRACK 110 AUDIO
    TITLE "0:"
    INDEX 01 01:49:73
  TRACK 111 AUDIO
    TITLE "2:cjc105_2645"
    INDEX 01 01:50:09
  TRACK 112 AUDIO
    TITLE "3:cjc105_2646"
    INDEX 01 01:51:36
  TRACK 113 AUDIO
    TITLE "0:"
    INDEX 01 01:53:39
  TRACK 114 AUDIO
    TITLE "2:cjc105_2647"
    INDEX 01 01:53:53
  TRACK 115 AUDIO
    TITLE "3:cjc105_2648"
    INDEX 01 01:55:67
  TRACK 116 AUDIO
    TITLE "0:"
    INDEX 01 01:57:27
  TRACK 117 AUDIO
    TITLE "2:cjc105_2649"
    INDEX 01 01:57:41
  TRACK 118 AUDIO
    TITLE "3:cjc105_2650"
    INDEX 01 01:58:62
  TRACK 119 AUDIO
    TITLE "0:"
    INDEX 01 01:59:71
  TRACK 120 AUDIO
    TITLE "2:cjc105_2651"
    INDEX 01 02:00:08
  TRACK 121 AUDIO
    TITLE "3:cjc105_2652"
    INDEX 01 02:01:21
  TRACK 122 AUDIO
    TITLE "0:"
    INDEX 01 02:02:52
  TRACK 123 AUDIO
    TITLE "2:cjc105_2653"
    INDEX 01 02:02:62
  TRACK 124 AUDIO
    TITLE "3:cjc105_2654"
    INDEX 01 02:04:13
  TRACK 125 AUDIO
    TITLE "0:"
    INDEX 01 02:05:13
